HIERARCHY
ROOT Hips
{
	OFFSET -211.153198 91.653587 -35.738949
	CHANNELS 6 Xposition Yposition Zposition Zrotation Yrotation Xrotation 
	JOINT LeftUpLeg
	{
		OFFSET 0.103455 1.857827 10.548507
		CHANNELS 3 Zrotation Yrotation Xrotation
		JOINT LeftLeg
		{
			OFFSET 43.500000 -0.000031 0.000008
			CHANNELS 3 Zrotation Yrotation Xrotation
			JOINT LeftFoot
			{
				OFFSET 42.372192 0.000011 -0.000014
				CHANNELS 3 Zrotation Yrotation Xrotation
				JOINT LeftToe
				{
					OFFSET 17.299997 -0.000002 0.000013
					CHANNELS 3 Zrotation Yrotation Xrotation
					End Site
					{
						OFFSET 0.000000 0.000000 0.000000
					}
				}
			}
		}
	}
	JOINT RightUpLeg
	{
		OFFSET 0.103457 1.857826 -10.548499
		CHANNELS 3 Zrotation Yrotation Xrotation
		JOINT RightLeg
		{
			OFFSET 43.500046 -0.000019 0.000015
			CHANNELS 3 Zrotation Yrotation Xrotation
			JOINT RightFoot
			{
				OFFSET 42.372261 -0.000004 0.000013
				CHANNELS 3 Zrotation Yrotation Xrotation
				JOINT RightToe
				{
					OFFSET 17.299992 -0.000006 0.000004
					CHANNELS 3 Zrotation Yrotation Xrotation
					End Site
					{
						OFFSET 0.000000 0.000000 0.000000
					}
				}
			}
		}
	}
	JOINT Spine
	{
		OFFSET 6.901968 -2.603730 -0.000002
		CHANNELS 3 Zrotation Yrotation Xrotation
		JOINT Spine1
		{
			OFFSET 12.588100 -0.000001 0.000009
			CHANNELS 3 Zrotation Yrotation Xrotation
			JOINT Spine2
			{
				OFFSET 12.343201 0.000005 -0.000005
				CHANNELS 3 Zrotation Yrotation Xrotation
				JOINT Neck
				{
					OFFSET 25.832893 -0.000008 -0.000006
					CHANNELS 3 Zrotation Yrotation Xrotation
					JOINT Head
					{
						OFFSET 11.766606 0.000005 0.000008
						CHANNELS 3 Zrotation Yrotation Xrotation
						End Site
						{
							OFFSET 0.000000 0.000000 0.000000
						}
					}
				}
				JOINT LeftShoulder
				{
					OFFSET 19.745903 -1.480373 6.000100
					CHANNELS 3 Zrotation Yrotation Xrotation
					JOINT LeftArm
					{
						OFFSET 11.284123 -0.000007 -0.000024
						CHANNELS 3 Zrotation Yrotation Xrotation
						JOINT LeftForeArm
						{
							OFFSET 33.000053 0.000004 0.000036
							CHANNELS 3 Zrotation Yrotation Xrotation
							JOINT LeftHand
							{
								OFFSET 25.200006 0.000021 -0.000003
								CHANNELS 3 Zrotation Yrotation Xrotation
								End Site
								{
									OFFSET 0.000000 0.000000 0.000000
								}
							}
						}
					}
				}
				JOINT RightShoulder
				{
					OFFSET 19.746101 -1.480381 -6.000079
					CHANNELS 3 Zrotation Yrotation Xrotation
					JOINT RightArm
					{
						OFFSET 11.284133 -0.000015 -0.000008
						CHANNELS 3 Zrotation Yrotation Xrotation
						JOINT RightForeArm
						{
							OFFSET 33.000099 0.000016 0.000006
							CHANNELS 3 Zrotation Yrotation Xrotation
							JOINT RightHand
							{
								OFFSET 25.199781 0.000142 0.000425
								CHANNELS 3 Zrotation Yrotation Xrotation
								End Site
								{
									OFFSET 0.000000 0.000000 0.000000
								}
							}
						}
					}
				}
			}
		}
	}
}
MOTION
Frames: 9
Frame Time: 0.033333
-211.153198 91.653587 -35.738949 92.222082 8.408382 91.218385 -170.142594 0.214801 177.561901 -7.962124 -1.271036 -7.842605 73.765845 4.338777 -4.445076 21.454551 0.003094 0.000001 -169.440574 4.125312 -176.219359 -10.114872 4.447735 7.779177 79.258663 -5.411643 0.797038 21.454560 -0.003108 -0.000015 7.054458 -0.478679 0.041421 4.105801 -0.957668 0.070241 3.787660 -0.957421 0.075990 -0.478605 -5.007815 -1.887721 -15.177876 10.299241 -6.426809 -143.982396 -88.860133 -37.791498 -17.751501 13.547031 -14.705952 -24.263096 -15.877533 1.195400 15.327303 -5.427472 41.859535 -126.231322 83.103342 55.875851 -14.973540 -11.070518 13.614680 -21.039481 14.982734 -1.108903 9.129128 9.673027 -14.016051 
-211.209396 91.655151 -35.775379 92.233222 8.394195 91.243589 -170.189108 0.187302 177.540686 -7.972415 -1.261068 -7.814603 73.733306 4.312563 -4.463004 21.454551 0.003089 -0.000001 -169.494272 4.102791 -176.220506 -10.154242 4.463160 7.793791 79.269297 -5.430882 0.759870 21.454562 -0.003116 -0.000017 7.054457 -0.478678 0.041414 4.105800 -0.957660 0.066113 3.787656 -0.957411 0.071873 -0.448426 -5.007829 -1.884706 -15.156002 10.299242 -6.418659 -146.177523 -88.898723 -35.591539 -17.728970 13.540287 -14.740501 -24.296637 -15.882225 1.195391 15.319334 -5.447449 41.944933 -126.353473 83.112481 55.752225 -14.973539 -11.025632 13.614672 -21.048819 14.982734 -1.108907 9.129136 9.655125 -14.011507 
-211.314407 91.658630 -35.843029 92.249430 8.366051 91.289126 -170.277832 0.133101 177.492219 -7.991875 -1.239429 -7.759233 73.672039 4.261442 -4.495974 21.454551 0.003077 -0.000001 -169.587737 4.053890 -176.204851 -10.210914 4.484353 7.810741 79.278723 -5.459629 0.690020 21.454557 -0.003101 -0.000017 7.054452 -0.478669 0.036956 4.105806 -0.957664 0.057077 3.787658 -0.957414 0.062875 -0.389415 -5.005072 -1.877547 -15.121921 10.301938 -6.405699 -149.832002 -88.954137 -31.929454 -17.719681 13.511262 -14.739681 -24.316553 -15.911332 1.195390 15.363240 -5.432326 41.933069 -126.643387 83.129734 55.458947 -14.973540 -10.931468 13.614686 -21.062020 14.970863 -1.108901 9.125302 9.659701 -13.986740 
-211.421707 91.662277 -35.910679 92.259730 8.329497 91.333044 -170.381186 0.073109 177.419245 -8.024089 -1.211820 -7.690860 73.616455 4.200932 -4.529068 21.454553 0.003097 0.000000 -169.683769 3.996706 -176.175809 -10.255535 4.500847 7.819548 79.281660 -5.483235 0.617962 21.454558 -0.003108 -0.000017 7.054459 -0.478668 0.031146 4.102417 -0.957666 0.045462 3.784265 -0.957407 0.051255 -0.329835 -5.017933 -1.864757 -15.089490 10.321434 -6.395795 -152.645630 -88.985480 -29.110543 -17.740960 13.454573 -14.703580 -24.305247 -15.926010 1.195401 15.398897 -5.410556 41.847418 -126.935705 83.155504 55.162838 -14.973542 -10.838359 13.614686 -21.072242 14.948554 -1.108901 9.117827 9.688362 -13.961844 
-211.529099 91.665550 -35.977421 92.268267 8.288521 91.374100 -170.492095 0.011803 177.336231 -8.064410 -1.182980 -7.618282 73.565884 4.137446 -4.562274 21.454551 0.003090 -0.000001 -169.782069 3.939503 -176.125198 -10.298071 4.515764 7.814029 79.284945 -5.497630 0.542533 21.454560 -0.003108 -0.000017 7.054463 -0.478673 0.025032 4.096069 -0.957660 0.033295 3.777918 -0.957411 0.039088 -0.269960 -5.050668 -1.848116 -15.057401 10.350418 -6.388809 -155.220256 -89.001422 -26.531945 -17.769383 13.378532 -14.674856 -24.294290 -15.934883 1.195390 15.389559 -5.402045 41.816884 -127.133740 83.193377 54.961081 -14.973539 -10.762721 13.614673 -21.077462 14.921226 -1.108916 9.110886 9.737304 -13.944754 
-211.634796 91.667877 -36.041359 92.279906 8.246954 91.411345 -170.601706 -0.046094 177.259282 -8.105495 -1.158297 -7.551384 73.518934 4.078093 -4.595558 21.454551 0.003104 0.000001 -169.881121 3.891403 -176.037648 -10.347797 4.531461 7.783922 79.295607 -5.496045 0.461748 21.454558 -0.003099 -0.000015 7.050303 -0.478675 0.019687 4.087799 -0.957655 0.022660 3.769656 -0.957421 0.028448 -0.217876 -5.105230 -1.827216 -15.012903 10.382324 -6.381368 -157.752945 -89.008498 -23.995220 -17.796401 13.295300 -14.661431 -24.294465 -15.946663 1.195400 15.344889 -5.378783 41.824349 -127.194556 83.242534 54.896717 -14.973542 -10.709529 13.614681 -21.077540 14.896982 -1.108908 9.114466 9.746653 -13.957143 
-211.734802 91.668694 -36.101410 92.302357 8.205074 91.444246 -170.705279 -0.089491 177.192183 -8.140304 -1.136833 -7.492699 73.473506 4.024852 -4.628384 21.454553 0.003103 0.000001 -169.986470 3.868894 -175.881128 -10.422350 4.553160 7.708640 79.323488 -5.465171 0.371030 21.454562 -0.003106 -0.000016 7.044916 -0.478669 0.016175 4.077062 -0.957657 0.015649 3.758926 -0.957418 0.021447 -0.198202 -5.169468 -1.799461 -14.916008 10.402521 -6.360319 -160.419000 -89.018819 -21.324721 -17.813234 13.220451 -14.673241 -24.310785 -15.951004 1.195402 15.322160 -5.371009 41.838518 -127.085273 83.300045 55.003493 -14.973544 -10.685868 13.612039 -21.074088 14.885625 -1.108917 9.133294 9.674223 -13.991093 
-211.827698 91.668533 -36.156761 92.336979 8.170302 91.479353 -170.792268 -0.117097 177.131339 -8.162055 -1.117365 -7.436325 73.426453 3.973993 -4.658789 21.454551 0.003103 0.000001 -170.085699 3.860508 -175.783948 -10.502451 4.580218 7.669322 79.360118 -5.456108 0.293651 21.454560 -0.003101 -0.000016 7.040062 -0.482030 0.014131 4.067381 -0.964274 0.010994 3.749241 -0.964053 0.016828 -0.209104 -5.230467 -1.763571 -14.766502 10.413306 -6.322826 -163.528403 -89.041208 -18.210768 -17.817640 13.158690 -14.708232 -24.339010 -15.939520 1.195400 15.311729 -5.416421 41.837111 -126.872581 83.358846 55.214204 -14.968522 -10.682412 13.603652 -21.067659 14.883790 -1.108913 9.157740 9.538630 -13.978602 
-211.914505 91.667213 -36.207291 92.379538 8.151674 91.522930 -170.858371 -0.137399 177.082777 -8.179093 -1.104490 -7.381730 73.381660 3.925516 -4.686060 21.454553 0.003085 0.000001 -170.165530 3.855395 -175.767064 -10.578472 4.609207 7.682760 79.400867 -5.479277 0.234974 21.454555 -0.003111 -0.000017 7.038641 -0.488412 0.011876 4.062580 -0.975463 0.006834 3.744435 -0.975261 0.012726 -0.169599 -5.244000 -1.743377 -14.715096 10.340085 -6.272130 -167.242332 -89.090003 -14.491136 -17.814320 13.129091 -14.747866 -24.341555 -15.932543 1.195388 15.293835 -5.461790 41.786766 -126.887785 83.397252 55.196593 -14.949831 -10.644808 13.579478 -21.054050 14.876316 -1.108914 9.181355 9.427285 -13.942046 
